<?xml version="1.0" encoding="UTF-8" standalone="no"?>
<svg
   version="1.0"
   width="1200.000000pt"
   height="1200.000000pt"
   viewBox="0 0 1200.000000 1200.000000"
   preserveAspectRatio="xMidYMid meet"
   id="svg34"
   sodipodi:docname="logo.svg"
   inkscape:version="1.1 (c68e22c387, 2021-05-23)"
   xmlns:inkscape="http://www.inkscape.org/namespaces/inkscape"
   xmlns:sodipodi="http://sodipodi.sourceforge.net/DTD/sodipodi-0.dtd"
   xmlns="http://www.w3.org/2000/svg"
   xmlns:svg="http://www.w3.org/2000/svg">
  <defs
     id="defs38" />
  <sodipodi:namedview
     id="namedview36"
     pagecolor="#ffffff"
     bordercolor="#666666"
     borderopacity="1.0"
     inkscape:pageshadow="2"
     inkscape:pageopacity="0.0"
     inkscape:pagecheckerboard="0"
     inkscape:document-units="pt"
     showgrid="false"
     inkscape:zoom="0.2534375"
     inkscape:cx="611.59063"
     inkscape:cy="499.13687"
     inkscape:window-width="1271"
     inkscape:window-height="987"
     inkscape:window-x="2662"
     inkscape:window-y="412"
     inkscape:window-maximized="0"
     inkscape:current-layer="g32" />
  <g
     transform="translate(0.000000,1200.000000) scale(0.100000,-0.100000)"
     fill="#000000"
     stroke="none"
     id="g32">
    <path
       d="M4080 6000 c0 -971 2 -1100 15 -1100 13 0 15 129 15 1100 0 971 -2 1100 -15 1100 -13 0 -15 -129 -15 -1100z"
       id="path2"
       inkscape:export-filename="C:\Users\Camille\Desktop\path2.png"
       inkscape:export-xdpi="96"
       inkscape:export-ydpi="96" />
    <path
       d="M2290 6780 c-36 -5 -94 -18 -130 -29 -64 -20 -66 -22 -118 -102 -29 -44 -65 -105 -79 -134 -25 -51 -28 -53 -76 -59 -64 -9 -117 -57 -117 -106 0 -52 27 -97 71 -117 l39 -17 0 -176 c0 -182 4 -200 42 -200 32 0 38 34 38 238 0 218 0 218 -59 224 -37 3 -58 26 -48 52 5 11 19 16 49 16 77 0 86 7 122 85 19 40 54 105 79 144 39 59 52 72 84 80 161 43 582 37 693 -10 27 -11 85 -99 143 -215 20 -39 43 -74 52 -78 9 -3 36 -6 60 -6 49 0 75 -21 58 -48 -5 -10 -21 -18 -34 -20 -73 -8 -69 0 -69 -135 l0 -122 -85 -85 -85 -84 -27 31 c-16 17 -43 36 -62 42 -45 15 -659 15 -698 1 -35 -13 -383 -359 -383 -380 0 -20 20 -40 39 -40 8 0 94 79 191 175 l176 175 325 0 326 0 21 -23 c28 -30 28 -68 -1 -95 -22 -20 -34 -22 -221 -24 -177 -3 -200 -5 -210 -20 -8 -13 -8 -23 0 -35 10 -16 33 -18 205 -21 216 -3 265 7 296 56 9 15 77 89 152 165 134 135 161 153 189 125 35 -35 18 -57 -241 -316 l-253 -252 -320 0 -319 0 -168 -168 c-92 -92 -167 -174 -167 -183 0 -19 20 -39 40 -39 8 0 85 70 170 155 l155 155 303 0 c237 0 310 3 335 14 18 8 150 133 295 278 l262 264 0 51 c0 36 -6 58 -22 78 -24 30 -74 55 -113 55 -24 0 -25 3 -25 59 0 53 2 60 23 66 60 19 97 90 77 150 -15 47 -50 72 -111 80 -48 7 -51 9 -76 58 -47 95 -125 208 -152 221 -70 37 -145 47 -361 51 -118 2 -244 0 -280 -5z"
       id="path4"
       inkscape:export-filename="C:\Users\Camille\Desktop\icon.png"
       inkscape:export-xdpi="96"
       inkscape:export-ydpi="96" />
    <path
       d="M6720 6468 c-61 -32 -83 -66 -88 -138 l-4 -60 -43 0 c-48 0 -67 -16 -67 -57 0 -34 26 -53 74 -53 l38 0 0 -194 c0 -213 3 -226 59 -226 56 0 61 17 61 228 l0 192 53 0 c61 0 97 20 97 54 0 38 -30 56 -93 56 l-57 0 0 40 c0 61 26 82 93 74 55 -6 66 -1 80 39 5 12 -2 26 -18 43 -33 33 -121 34 -185 2z"
       id="path6"
       inkscape:export-filename="C:\Users\Camille\Desktop\path2.png"
       inkscape:export-xdpi="96"
       inkscape:export-ydpi="96" />
    <path
       d="M6982 6458 c-17 -17 -15 -74 4 -92 8 -9 31 -16 49 -16 40 0 65 22 65 56 0 47 -17 64 -63 64 -24 0 -48 -5 -55 -12z"
       id="path8"
       inkscape:export-filename="C:\Users\Camille\Desktop\path2.png"
       inkscape:export-xdpi="96"
       inkscape:export-ydpi="96" />
    <path
       d="M8076 6439 l-26 -20 0 -320 c0 -306 1 -320 20 -339 19 -19 33 -20 215 -20 182 0 196 1 215 20 25 25 26 52 2 73 -16 14 -43 17 -170 17 l-152 0 0 100 0 100 129 0 c140 0 161 7 161 55 0 48 -21 55 -161 55 l-129 0 0 90 0 90 150 0 c137 0 152 2 170 20 27 27 25 55 -6 79 -25 20 -40 21 -209 21 -169 0 -184 -1 -209 -21z"
       id="path10"
       inkscape:export-filename="C:\Users\Camille\Desktop\path2.png"
       inkscape:export-xdpi="96"
       inkscape:export-ydpi="96" />
    <path
       d="M4877 6432 c-21 -23 -22 -56 -1 -76 12 -12 37 -16 110 -16 l94 0 0 -272 c0 -318 1 -323 70 -323 69 0 70 5 70 323 l0 272 93 0 c78 0 97 3 110 18 22 24 21 55 -1 75 -16 15 -50 17 -274 17 -234 0 -256 -1 -271 -18z"
       id="path12"
       inkscape:export-filename="C:\Users\Camille\Desktop\path2.png"
       inkscape:export-xdpi="96"
       inkscape:export-ydpi="96" />
    <path
       d="M2218 6420 c-133 -11 -148 -15 -148 -44 0 -45 16 -48 182 -35 102 8 229 9 383 4 127 -4 252 -8 279 -9 88 -2 92 62 5 76 -68 11 -592 18 -701 8z"
       id="path14"
       inkscape:export-filename="C:\Users\Camille\Desktop\icon.png"
       inkscape:export-xdpi="96"
       inkscape:export-ydpi="96" />
    <path
       d="M7397 6290 c-57 -15 -90 -35 -131 -80 -55 -61 -70 -102 -70 -195 0 -123 46 -208 139 -258 54 -29 202 -31 255 -3 72 38 90 75 52 109 -24 22 -37 21 -89 -4 -83 -40 -173 -14 -218 62 -28 48 -27 142 2 189 45 73 148 97 223 51 42 -25 54 -26 74 -5 37 36 8 99 -56 123 -40 15 -139 21 -181 11z"
       id="path16"
       inkscape:export-filename="C:\Users\Camille\Desktop\path2.png"
       inkscape:export-xdpi="96"
       inkscape:export-ydpi="96" />
    <path
       d="M8846 6286 c-22 -8 -51 -26 -64 -40 l-26 -25 -10 22 c-6 12 -23 28 -37 36 -24 13 -29 13 -53 -2 l-26 -17 0 -244 c0 -223 2 -244 18 -259 25 -23 58 -21 82 3 18 18 20 33 20 176 0 124 3 163 16 190 24 49 63 67 130 58 37 -4 59 -2 69 6 19 16 20 74 1 89 -23 19 -78 22 -120 7z"
       id="path18"
       inkscape:export-filename="C:\Users\Camille\Desktop\path2.png"
       inkscape:export-xdpi="96"
       inkscape:export-ydpi="96" />
    <path
       d="M9225 6291 c-81 -20 -153 -89 -181 -174 -22 -67 -15 -186 14 -243 43 -85 110 -132 197 -141 64 -7 115 9 161 49 l34 30 0 -45 c0 -94 -89 -143 -202 -112 -99 28 -117 29 -138 10 -66 -60 30 -125 185 -127 87 -1 140 13 192 51 75 54 78 68 81 393 l3 287 -25 17 c-35 22 -71 12 -87 -25 l-13 -29 -29 20 c-32 23 -109 49 -141 47 -12 -1 -34 -4 -51 -8z m115 -111 c76 -21 128 -113 114 -200 -30 -187 -281 -184 -309 4 -13 86 35 174 108 195 43 12 47 12 87 1z"
       id="path20"
       inkscape:export-filename="C:\Users\Camille\Desktop\path2.png"
       inkscape:export-xdpi="96"
       inkscape:export-ydpi="96" />
    <path
       d="M9863 6291 c-123 -32 -202 -140 -203 -277 0 -59 5 -81 31 -133 51 -101 124 -145 244 -145 70 -1 87 3 134 29 56 31 106 88 128 148 6 18 12 64 12 103 1 116 -53 206 -157 258 -38 19 -143 29 -189 17z m155 -128 c54 -40 67 -69 67 -148 0 -59 -4 -79 -21 -101 -38 -51 -71 -69 -129 -69 -108 0 -174 95 -151 219 8 43 49 94 91 112 39 18 110 12 143 -13z"
       id="path22"
       inkscape:export-filename="C:\Users\Camille\Desktop\path2.png"
       inkscape:export-xdpi="96"
       inkscape:export-ydpi="96" />
    <path
       d="M5669 6270 c-19 -10 -41 -26 -49 -35 -11 -14 -15 -12 -31 15 -22 35 -66 41 -92 12 -15 -16 -17 -49 -17 -251 0 -141 4 -240 10 -252 7 -13 21 -19 44 -19 59 0 64 15 68 202 3 150 5 169 24 195 33 44 69 58 116 44 33 -10 43 -10 64 4 29 19 32 64 6 88 -25 23 -98 21 -143 -3z"
       id="path24"
       inkscape:export-filename="C:\Users\Camille\Desktop\path2.png"
       inkscape:export-xdpi="96"
       inkscape:export-ydpi="96" />
    <path
       d="M6022 6264 c-187 -93 -188 -415 -1 -509 81 -42 189 -32 252 23 9 8 18 13 20 11 1 -2 7 -13 13 -24 8 -15 22 -20 50 -20 60 0 64 15 64 270 0 255 -4 270 -64 270 -37 0 -41 -3 -63 -44 -1 -2 -26 8 -54 23 -72 35 -146 35 -217 0z m198 -103 c72 -38 100 -150 60 -238 -25 -56 -70 -83 -137 -83 -57 0 -101 27 -128 81 -21 39 -19 136 3 179 36 73 128 101 202 61z"
       id="path26"
       inkscape:export-filename="C:\Users\Camille\Desktop\path2.png"
       inkscape:export-xdpi="96"
       inkscape:export-ydpi="96" />
    <path
       d="M6989 6263 c-11 -12 -15 -68 -17 -242 -3 -263 0 -276 63 -276 57 0 65 21 64 180 -2 213 -12 334 -29 345 -24 15 -66 12 -81 -7z"
       id="path28"
       inkscape:export-filename="C:\Users\Camille\Desktop\path2.png"
       inkscape:export-xdpi="96"
       inkscape:export-ydpi="96" />
    <path
       d="M2092 6250 c-40 -25 -66 -81 -58 -126 20 -104 156 -137 218 -53 l22 29 250 0 251 0 17 -29 c11 -20 29 -33 56 -40 56 -15 97 -4 132 36 89 101 -30 248 -150 186 -19 -10 -39 -28 -45 -40 -10 -23 -10 -23 -258 -23 l-249 0 -21 26 c-22 29 -73 54 -109 54 -13 0 -38 -9 -56 -20z m89 -70 c29 -16 25 -58 -7 -72 -23 -11 -29 -10 -45 10 -18 23 -16 50 5 64 15 10 24 10 47 -2z m730 0 c28 -16 25 -58 -6 -72 -19 -8 -28 -8 -40 2 -18 15 -20 51 -3 68 15 15 24 15 49 2z"
       id="path30"
       inkscape:export-filename="C:\Users\Camille\Desktop\icon.png"
       inkscape:export-xdpi="96"
       inkscape:export-ydpi="96" />
  </g>
</svg>
